<svg width="94" height="42" viewBox="0 0 94 42" fill="none" xmlns="http://www.w3.org/2000/svg">
<path d="M14.447 18.6005V5.91494H22.3682V7.61133H16.416V11.6292H21.8664V13.2908H16.416V18.6005H14.447ZM23.6947 6.90812C23.6947 6.30214 24.1861 5.81771 24.7938 5.81771C25.3998 5.81771 25.8929 6.30214 25.8929 6.90812C25.8929 7.50541 25.4015 7.99853 24.7938 7.99853C24.1861 7.99853 23.6947 7.50715 23.6947 6.90812ZM23.844 9.35286H25.7436V18.6005H23.844V9.35286ZM30.4351 7.16336V9.35286H32.1923V10.8565H30.4351V15.9544C30.4351 16.7548 30.7859 17.1142 31.5603 17.1142C31.753 17.1142 32.0621 17.0969 32.1836 17.0708V18.5745C31.9735 18.6266 31.5516 18.663 31.1279 18.663C29.2562 18.663 28.5252 17.9511 28.5252 16.1662V10.8565H27.1795V9.35286H28.5252V7.16336H30.4351ZM33.7862 9.35286H35.5972V10.8999H35.6406C36.1424 9.84424 37.1269 9.19486 38.5507 9.19486C40.5909 9.19486 41.7594 10.4954 41.7594 12.6137V18.6005H39.8512V12.9835C39.8512 11.5945 39.2001 10.8305 37.8822 10.8305C36.5453 10.8305 35.684 11.7802 35.684 13.2127V18.6023H33.7845V9.35286H33.7862ZM51.3387 15.8832C51.0748 17.5709 49.4757 18.7759 47.3574 18.7759C44.6417 18.7759 42.9974 16.9389 42.9974 14.0201C42.9974 11.1187 44.6678 9.18444 47.2792 9.18444C49.8455 9.18444 51.4464 10.9954 51.4464 13.7996V14.4507H44.9143V14.5653C44.9143 16.1731 45.8815 17.2375 47.4025 17.2375C48.4842 17.2375 49.2847 16.6923 49.5382 15.8832H51.3387ZM44.9213 13.1242H49.5451C49.5017 11.7091 48.604 10.7159 47.2775 10.7159C45.9492 10.7159 45.0168 11.7264 44.9213 13.1242ZM56.296 9.18618C58.449 9.18618 59.8467 10.3825 59.9092 12.0876H58.1243C58.0184 11.1916 57.3603 10.6291 56.296 10.6291C55.268 10.6291 54.5822 11.1309 54.5822 11.8688C54.5822 12.4487 55.0041 12.8446 56.006 13.0738L57.5096 13.4159C59.4005 13.8552 60.1211 14.5931 60.1211 15.9301C60.1211 17.6178 58.548 18.7776 56.3671 18.7776C54.0544 18.7776 52.6653 17.6438 52.4899 15.8849H54.3704C54.5457 16.8521 55.2055 17.3261 56.3654 17.3261C57.5079 17.3261 58.2111 16.8521 58.2111 16.095C58.2111 15.4977 57.8691 15.1452 56.8568 14.916L55.3531 14.5653C53.5942 14.1607 52.7243 13.3169 52.7243 11.9712C52.7278 10.32 54.169 9.18618 56.296 9.18618ZM64.8838 9.18618C67.0369 9.18618 68.4346 10.3825 68.4971 12.0876H66.7122C66.6062 11.1916 65.9482 10.6291 64.8838 10.6291C63.8559 10.6291 63.1701 11.1309 63.1701 11.8688C63.1701 12.4487 63.592 12.8446 64.5939 13.0738L66.0975 13.4159C67.9884 13.8552 68.7089 14.5931 68.7089 15.9301C68.7089 17.6178 67.1358 18.7776 64.955 18.7776C62.6422 18.7776 61.2532 17.6438 61.0778 15.8849H62.9582C63.1336 16.8521 63.7934 17.3261 64.9533 17.3261C66.0958 17.3261 66.799 16.8521 66.799 16.095C66.799 15.4977 66.4569 15.1452 65.4446 14.916L63.941 14.5653C62.1821 14.1607 61.3122 13.3169 61.3122 11.9712C61.3139 10.32 62.7568 9.18618 64.8838 9.18618ZM75.1264 18.6127H73.3953V14.8449H69.808V13.1311H73.3953V9.36502H75.1264V13.1311H78.7223V14.8449H75.1264V18.6127ZM8.41679 7.15468C8.89775 6.57301 9.22071 5.76388 9.13216 4.95996C8.4411 4.98774 7.60419 5.42009 7.1076 6.00176C6.6631 6.51571 6.27243 7.34046 6.37835 8.12875C7.14928 8.18779 7.93757 7.73634 8.41679 7.15468ZM9.1148 8.28155C7.98271 8.19821 7.02252 8.91357 6.48774 8.91357C5.94427 8.91357 5.10562 8.29891 4.21836 8.31628C3.05155 8.33364 1.97676 8.99518 1.37426 10.0404C0.162304 12.1431 1.06519 15.2598 2.24589 16.9666C2.82409 17.8001 3.51167 18.7412 4.4163 18.7064C5.2862 18.6717 5.6161 18.1439 6.66831 18.1439C7.72053 18.1439 8.01744 18.7064 8.93769 18.6908C9.87531 18.6735 10.4691 17.84 11.0421 17.0014C11.7054 16.0342 11.978 15.0966 11.9936 15.0463C11.9728 15.0376 10.167 14.3448 10.1496 12.2647C10.134 10.5249 11.57 9.68971 11.6342 9.64804C10.8181 8.4465 9.55929 8.31454 9.1148 8.28155Z" fill="black"/>
</svg>
