<svg width="75" height="42" viewBox="0 0 75 42" fill="none" xmlns="http://www.w3.org/2000/svg">
<path d="M25.5187 18.6118V9.25582H25.4578L21.6258 18.6118H20.164L16.3198 9.25582H16.2589V18.6118H14.4613V5.89936H16.7427L20.8566 16.0296H20.928L25.0332 5.89936H27.3233V18.6118H25.5187ZM37.2618 18.6118H35.4381V17.0441H35.3946C34.8829 18.1542 33.9415 18.7788 32.5232 18.7788C30.5062 18.7788 29.2724 17.4669 29.2724 15.3423V9.34282H31.1762V14.9717C31.1762 16.3811 31.8462 17.138 33.1584 17.138C34.5331 17.138 35.3615 16.1862 35.3615 14.742V9.34282H37.2653L37.2618 18.6118ZM42.4773 9.17578C44.6352 9.17578 46.0361 10.3746 46.0988 12.0833H44.3098C44.2037 11.1855 43.5441 10.6217 42.4773 10.6217C41.4471 10.6217 40.7597 11.1246 40.7597 11.8641C40.7597 12.4452 41.1826 12.842 42.1867 13.0716L43.6938 13.4144C45.5889 13.8546 46.3111 14.5941 46.3111 15.9339C46.3111 17.6252 44.7344 18.7875 42.5487 18.7875C40.2307 18.7875 38.8385 17.6513 38.6627 15.8887H40.5492C40.7249 16.8579 41.3862 17.3329 42.5487 17.3329C43.6938 17.3329 44.3986 16.8579 44.3986 16.0992C44.3986 15.5007 44.0557 15.1475 43.0412 14.9178L41.5341 14.5663C39.7713 14.1609 38.8994 13.3152 38.8994 11.9667C38.8994 10.312 40.3455 9.17578 42.4773 9.17578ZM47.6406 6.90334C47.6284 6.2926 48.114 5.788 48.7248 5.77582C49.3356 5.76364 49.8403 6.2491 49.8525 6.85984C49.8646 7.47058 49.3791 7.97518 48.7683 7.98736C48.7596 7.98736 48.7509 7.98736 48.7422 7.98736C48.1383 7.99084 47.6458 7.50712 47.6406 6.90334ZM47.7903 9.34282H49.6941V18.6101H47.7903V9.34282ZM57.727 12.5322C57.5339 11.5457 56.7925 10.7609 55.5517 10.7609C54.0795 10.7609 53.1119 11.9859 53.1119 13.9764C53.1119 16.0122 54.0899 17.192 55.5709 17.192C56.7421 17.192 57.5095 16.5482 57.7288 15.4746H59.5612C59.3576 17.4477 57.781 18.7875 55.5517 18.7875C52.8996 18.7875 51.1733 16.9727 51.1733 13.9782C51.1733 11.0358 52.8996 9.17752 55.5343 9.17752C57.9219 9.17752 59.375 10.7105 59.5438 12.534L57.727 12.5322ZM8.41741 7.13998C8.93252 6.52402 9.18833 5.73232 9.1309 4.93018C8.34084 5.005 7.60994 5.38258 7.09309 5.98462C6.65106 6.49444 6.26125 7.32616 6.36219 8.10916C7.14355 8.17702 7.92492 7.71766 8.41741 7.13998ZM9.12046 8.26054C7.98583 8.19268 7.02 8.90434 6.47878 8.90434C5.93583 8.90434 5.10573 8.2936 4.20951 8.311C3.02093 8.34058 1.9385 8.9983 1.36422 10.0388C0.144317 12.1407 1.04228 15.2588 2.22912 16.9692C2.80514 17.8166 3.4995 18.7493 4.41312 18.7145C5.27802 18.6814 5.61562 18.1542 6.66673 18.1542C7.71609 18.1542 8.02063 18.7145 8.936 18.6971C9.88443 18.6797 10.4778 17.8497 11.0539 17.0023C11.4628 16.402 11.7813 15.746 12.0023 15.0535C11.9849 15.0361 10.1733 14.3418 10.1559 12.2573C10.1385 10.5121 11.5794 9.68212 11.6455 9.62992C10.8329 8.43106 9.56248 8.29534 9.12046 8.26054Z" fill="black"/>
</svg>
