<svg width="11" height="14" viewBox="0 0 11 14" fill="none" xmlns="http://www.w3.org/2000/svg">
<path d="M9.17538 7.01928C9.17538 7.15648 9.12393 7.27652 9.02104 7.37942L6.09496 10.2991C6.00492 10.3891 5.89346 10.4341 5.76055 10.4341C5.62764 10.4341 5.51403 10.388 5.41971 10.2958C5.32539 10.2037 5.27823 10.0911 5.27823 9.95822C5.27823 9.82532 5.32753 9.70956 5.42614 9.61095L8.02424 7.01928L5.42614 4.42762C5.32753 4.32901 5.27823 4.21325 5.27823 4.08034C5.27823 3.94744 5.32539 3.8349 5.41971 3.74272C5.51403 3.65054 5.62764 3.60445 5.76055 3.60445C5.89346 3.60445 6.00492 3.64947 6.09496 3.7395L9.02104 6.65915C9.12393 6.76205 9.17538 6.88209 9.17538 7.01928Z" fill="#0071E3"/>
</svg>
