<svg width="84" height="42" viewBox="0 0 84 42" fill="none" xmlns="http://www.w3.org/2000/svg">
<path d="M21.4825 15.1411H16.5897L15.4162 18.6097H13.3431L17.9776 5.77852H20.1298L24.7643 18.6097H22.6561L21.4825 15.1411ZM17.0975 13.5412H20.9748L19.0616 7.91237H19.0089L17.0975 13.5412ZM25.8571 9.25414H27.6894V10.8453H27.7334C28.0443 9.75116 28.8806 9.10311 29.9839 9.10311C30.2597 9.10311 30.5004 9.14701 30.6427 9.17511V10.963C30.4916 10.9015 30.1543 10.8558 29.7801 10.8558C28.5433 10.8558 27.779 11.683 27.779 13.0072V18.6097H25.8571V9.25414ZM37.67 12.4733C37.475 11.4776 36.7266 10.6855 35.474 10.6855C33.9877 10.6855 33.0109 11.9219 33.0109 13.931C33.0109 15.9859 33.9982 17.1766 35.4933 17.1766C36.6757 17.1766 37.4504 16.5268 37.6718 15.4432H39.5217C39.3162 17.4348 37.7245 18.7871 35.474 18.7871C32.7966 18.7871 31.0538 16.9553 31.0538 13.9328C31.0538 10.963 32.7966 9.0873 35.4564 9.0873C37.8668 9.0873 39.3338 10.6346 39.5042 12.4751L37.67 12.4733ZM40.5091 15.9507C40.5091 14.3139 41.7635 13.3093 43.9876 13.1846L46.5491 13.0336V12.3135C46.5491 11.2738 45.8464 10.6504 44.6728 10.6504C43.5607 10.6504 42.8668 11.1843 42.6981 12.0202H40.8833C40.9905 10.3307 42.4311 9.08554 44.7431 9.08554C47.0111 9.08554 48.4605 10.2851 48.4605 12.1625V18.6097H46.6194V17.0712H46.5754C46.0326 18.1109 44.8502 18.7695 43.6222 18.7695C41.7898 18.7695 40.5091 17.6315 40.5091 15.9507ZM46.5491 15.106V14.3683L44.2459 14.5106C43.0987 14.5914 42.4486 15.0972 42.4486 15.898C42.4486 16.7164 43.125 17.2503 44.1563 17.2503C45.4985 17.2486 46.5491 16.3248 46.5491 15.106ZM49.8115 13.9328C49.8115 10.9805 51.3769 9.10486 53.7258 9.10486C55.068 9.10486 56.1362 9.78102 56.6614 10.8119H56.6966V5.77852H58.6273V18.6097H56.7581V17.0185H56.7229C56.1713 18.0846 55.1049 18.7695 53.7433 18.7695C51.3769 18.7695 49.8115 16.8833 49.8115 13.9328ZM51.7774 13.9328C51.7774 15.9068 52.7296 17.1432 54.2511 17.1432C55.7268 17.1432 56.7142 15.8893 56.7142 13.9328C56.7142 11.9939 55.7268 10.7224 54.2511 10.7224C52.7296 10.7224 51.7774 11.9675 51.7774 13.9328ZM68.4516 15.8612C68.1845 17.5682 66.5665 18.7871 64.4232 18.7871C61.6755 18.7871 60.0117 16.929 60.0117 13.9767C60.0117 11.042 61.7018 9.08554 64.3441 9.08554C66.9407 9.08554 68.5605 10.9173 68.5605 13.7537V14.4122H61.9513V14.5282C61.9513 16.1544 62.9298 17.231 64.4688 17.231C65.5633 17.231 66.3715 16.6796 66.6297 15.8612C66.628 15.8612 68.4516 15.8612 68.4516 15.8612ZM61.9583 13.0687H66.6368C66.5928 11.6374 65.6846 10.6328 64.3423 10.6328C63.0001 10.6328 62.0567 11.6549 61.9583 13.0687ZM8.49248 7.03073C8.97209 6.43009 9.29887 5.62397 9.21278 4.80029C8.51005 4.83542 7.65271 5.26394 7.15552 5.86458C6.70929 6.37916 6.31576 7.21865 6.41765 8.00896C7.20647 8.07746 7.99529 7.61381 8.49248 7.03073ZM9.204 8.16176C8.05854 8.09326 7.08349 8.81157 6.53712 8.81157C5.98898 8.81157 5.15097 8.19512 4.2462 8.21269C3.06736 8.23025 1.97285 8.89587 1.37377 9.95664C0.142228 12.0782 1.04876 15.2254 2.24692 16.9518C2.82843 17.8071 3.52941 18.7484 4.45175 18.7133C5.3249 18.6799 5.66573 18.1478 6.72686 18.1478C7.78623 18.1478 8.09367 18.7133 9.01777 18.6957C9.97525 18.6782 10.5743 17.8404 11.1558 16.9852C11.8234 16.0104 12.0958 15.0691 12.1133 15.0182C12.0958 15.0006 10.2669 14.2998 10.2493 12.1959C10.2317 10.4343 11.6864 9.59661 11.7532 9.54392C10.931 8.33387 9.64848 8.19688 9.204 8.16176Z" fill="black"/>
</svg>
